<?xml version="1.0" encoding="UTF-8"?>
<svg id="Capa_1" data-name="Capa 1" xmlns="http://www.w3.org/2000/svg" viewBox="0 0 400 400">
  <defs>
    <style>
      .cls-1, .cls-2 {
        fill: #c32194;
        stroke-width: 0px;
      }

      .cls-3 {
        opacity: .3;
      }

      .cls-2 {
        fill-rule: evenodd;
      }
    </style>
  </defs>
  <g class="cls-3">
    <path class="cls-2" d="m288.44,276.59c-118.58,0-209.47-87.07-230.9-197.25C29.93,111.9,13.21,153.97,13.21,200c0,103.16,83.63,186.79,186.79,186.79,82.94,0,153.17-54.11,177.54-128.92-28.17,12.02-58.47,18.73-89.1,18.73Z"/>
  </g>
  <path class="cls-1" d="m200,400C89.72,400,0,310.28,0,200S89.72,0,200,0s200,89.72,200,200-89.72,200-200,200Zm0-373.58C104.29,26.42,26.42,104.29,26.42,200s77.86,173.58,173.58,173.58,173.58-77.87,173.58-173.58S295.71,26.42,200,26.42Z"/>
  <g>
    <path class="cls-1" d="m284.99,156.97c-1.16-11.37-5.52-21.43-13.97-29.49-8.89-8.48-19.76-12.23-31.68-12.87-20.31-1.11-68.53-1.81-85.46.96-19.35,3.15-32.03,14.44-37.38,33.56-4.12,14.7-3.3,82.46-.9,97,3.28,19.87,15.02,32.61,34.71,37.69,13.63,3.52,80.61,3.07,95.65.63,19.89-3.21,32.68-14.89,37.85-34.55,3.95-15.09,2.57-79.3,1.19-92.92Zm-15.9,86.34c-2.31,15.09-12.33,24.44-27.5,26.1-13.94,1.53-76.18,2.37-89.11-1.25-12.36-3.46-19.44-11.96-21.49-24.41-1.96-11.89-2.45-71.3-.03-87.2,2.28-14.96,12.29-24.3,27.38-25.99,15.31-1.72,70.39-1.9,85.05.34,15.06,2.31,24.4,12.35,26.05,27.55,1.54,14.18,1.98,69.61-.35,84.85Zm-69.07-87.6c-24.47-.01-44.32,19.81-44.33,44.28s19.81,44.32,44.28,44.33c24.47.01,44.32-19.81,44.33-44.28.01-24.47-19.81-44.32-44.28-44.33Zm-.3,72.93c-15.82-.14-28.53-13.08-28.39-28.91.14-15.82,13.08-28.54,28.91-28.39,15.82.14,28.53,13.08,28.39,28.91-.14,15.82-13.08,28.54-28.91,28.39Zm56.71-74.6c-.01,5.73-4.67,10.36-10.4,10.35-5.73-.01-10.36-4.67-10.35-10.4.01-5.73,4.67-10.36,10.4-10.35,5.73.01,10.36,4.67,10.35,10.4Z"/>
    <path class="cls-1" d="m284.99,156.97c-1.16-11.37-5.52-21.43-13.97-29.49-8.89-8.48-19.76-12.23-31.68-12.87-20.31-1.11-68.53-1.81-85.46.96-19.35,3.15-32.03,14.44-37.38,33.56-4.12,14.7-3.3,82.46-.9,97,3.28,19.87,15.02,32.61,34.71,37.69,13.63,3.52,80.61,3.07,95.65.63,19.89-3.21,32.68-14.89,37.85-34.55,3.95-15.09,2.57-79.3,1.19-92.92Zm-15.9,86.34c-2.31,15.09-12.33,24.44-27.5,26.1-13.94,1.53-76.18,2.37-89.11-1.25-12.36-3.46-19.44-11.96-21.49-24.41-1.96-11.89-2.45-71.3-.03-87.2,2.28-14.96,12.29-24.3,27.38-25.99,15.31-1.72,70.39-1.9,85.05.34,15.06,2.31,24.4,12.35,26.05,27.55,1.54,14.18,1.98,69.61-.35,84.85Zm-69.07-87.6c-24.47-.01-44.32,19.81-44.33,44.28s19.81,44.32,44.28,44.33c24.47.01,44.32-19.81,44.33-44.28.01-24.47-19.81-44.32-44.28-44.33Zm-.3,72.93c-15.82-.14-28.53-13.08-28.39-28.91.14-15.82,13.08-28.54,28.91-28.39,15.82.14,28.53,13.08,28.39,28.91-.14,15.82-13.08,28.54-28.91,28.39Zm56.71-74.6c-.01,5.73-4.67,10.36-10.4,10.35-5.73-.01-10.36-4.67-10.35-10.4.01-5.73,4.67-10.36,10.4-10.35,5.73.01,10.36,4.67,10.35,10.4Z"/>
  </g>
</svg>