<?xml version="1.0" encoding="UTF-8"?>
<svg id="Capa_1" data-name="Capa 1" xmlns="http://www.w3.org/2000/svg" viewBox="0 0 400 400">
  <defs>
    <style>
      .cls-1 {
        opacity: .3;
      }

      .cls-2, .cls-3 {
        fill: #0b8f21;
        stroke-width: 0px;
      }

      .cls-3 {
        fill-rule: evenodd;
      }
    </style>
  </defs>
  <g class="cls-1">
    <path class="cls-3" d="m288.44,276.59c-118.58,0-209.47-87.07-230.9-197.25C29.93,111.9,13.21,153.97,13.21,200c0,103.16,83.63,186.79,186.79,186.79,82.94,0,153.17-54.11,177.54-128.92-28.17,12.02-58.47,18.73-89.1,18.73Z"/>
  </g>
  <path class="cls-2" d="m200,400C89.72,400,0,310.28,0,200S89.72,0,200,0s200,89.72,200,200-89.72,200-200,200Zm0-373.58C104.29,26.42,26.42,104.29,26.42,200s77.86,173.58,173.58,173.58,173.58-77.87,173.58-173.58S295.71,26.42,200,26.42Z"/>
  <g>
    <path class="cls-3" d="m108.34,292.15c1.03-3.98,1.93-7.44,2.86-10.9,3.03-11.07,6.14-22.12,9.02-33.21.42-1.66.24-3.86-.55-5.34-28.12-53.6.9-118.48,59.91-132.33,53.59-12.56,101.77,23.61,110.56,71.98,9.15,50.45-23.85,98.38-73.91,107.14-19.9,3.44-38.92.51-57.08-8.32-1.62-.8-3.9-1.02-5.62-.61-24.2,6.07-40.31,10.63-45.19,11.58Zm21.29-21c9.11-2.37,17.49-4.46,25.8-6.81,2.35-.63,4.16-.29,6.24.91,15.74,9.07,32.6,12.46,50.62,9.55,41.49-6.65,69.91-45.47,63.56-86.8-6.59-42.85-46.76-71.59-89.21-63.81-51.35,9.43-78.61,66.68-53.08,112.02,2.83,5.02,3.61,9.17,1.71,14.51-2.27,6.43-3.67,13.14-5.64,20.43Z"/>
    <path class="cls-3" d="m224.11,243.11c-17.85-.64-46.27-14.72-65.74-48.55-6.91-12.02-5.92-25.73,4.21-35.14,3.42-3.19,7.72-2.42,11.74-1.73.99.15,2.02,1.66,2.52,2.78,2.59,5.9,5.15,11.8,7.4,17.85,1.19,3.19-1,6.19-5.62,11.51-1.48,1.68-1.78,3.24-.63,5.19,7.49,12.68,17.95,21.85,31.72,27.23,2.02.78,3.53.29,4.82-1.29,7.3-8.9,8.04-11.51,11.88-9.68,18.46,8.83,19.91,9.19,19.99,11.29.63,15.56-13.64,21.17-22.29,20.53Z"/>
  </g>
</svg>